<?xml version="1.0" encoding="UTF-8"?>
<svg width="32" height="32" viewBox="0 0 32 32" fill="none" xmlns="http://www.w3.org/2000/svg">
    <!-- Shield Base -->
    <path d="M16 2L4 7V15C4 22.1797 9.10547 28.2109 16 30C22.8945 28.2109 28 22.1797 28 15V7L16 2Z" fill="#4A90E2"/>
    
    <!-- Shield Border -->
    <path d="M16 2L4 7V15C4 22.1797 9.10547 28.2109 16 30C22.8945 28.2109 28 22.1797 28 15V7L16 2Z" stroke="#FFFFFF" stroke-width="1.5" stroke-linejoin="round"/>
    
    <!-- Gear -->
    <path d="M16 20C18.2091 20 20 18.2091 20 16C20 13.7909 18.2091 12 16 12C13.7909 12 12 13.7909 12 16C12 18.2091 13.7909 20 16 20Z" fill="#FFFFFF"/>
    <path d="M16 20C18.2091 20 20 18.2091 20 16C20 13.7909 18.2091 12 16 12C13.7909 12 12 13.7909 12 16C12 18.2091 13.7909 20 16 20Z" stroke="#4A90E2" stroke-width="1.5"/>
    
    <!-- Gear Teeth -->
    <path d="M16 8V10" stroke="#FFFFFF" stroke-width="1.5" stroke-linecap="round"/>
    <path d="M16 22V24" stroke="#FFFFFF" stroke-width="1.5" stroke-linecap="round"/>
    <path d="M24 16H22" stroke="#FFFFFF" stroke-width="1.5" stroke-linecap="round"/>
    <path d="M10 16H8" stroke="#FFFFFF" stroke-width="1.5" stroke-linecap="round"/>
    <path d="M20.4853 11.5147L19.0711 12.9289" stroke="#FFFFFF" stroke-width="1.5" stroke-linecap="round"/>
    <path d="M12.9289 19.0711L11.5147 20.4853" stroke="#FFFFFF" stroke-width="1.5" stroke-linecap="round"/>
    <path d="M20.4853 20.4853L19.0711 19.0711" stroke="#FFFFFF" stroke-width="1.5" stroke-linecap="round"/>
    <path d="M12.9289 12.9289L11.5147 11.5147" stroke="#FFFFFF" stroke-width="1.5" stroke-linecap="round"/>
</svg> 